# xmcd CD database file
#
# Track frame offsets:
#	150
#	20912
#	38994
#	56448
#	73998
#	90940
#	111543
#	132078
#	151006
#	167500
#	184290
#	200986
#	220017
#
# Disc length: 3224 seconds
#
# Revision: 0
# Processed by: cddbd v1.5.2PL0 Copyright (c) Steve Scherf et al.
# Submitted via: CDex 1.70beta2
#
DISCID=bb0c960d
DTITLE=Danielle Spencer - Calling all Magicians
DYEAR=2010
DGENRE=New Age
TTITLE0=Just a thought
TTITLE1=On your side
TTITLE2=The broken ones
TTITLE3=Calling all magicians
TTITLE4=Wish I'd been there
TTITLE5=Citizen
TTITLE6=Around the corner
TTITLE7=Ghost
TTITLE8=Fade to black
TTITLE9=Empty shoes
TTITLE10=Man into wolf
TTITLE11=Back at the red door
TTITLE12=Eof of story
EXTD=YEAR: 2010
EXTT0=
EXTT1=
EXTT2=
EXTT3=
EXTT4=
EXTT5=
EXTT6=
EXTT7=
EXTT8=
EXTT9=
EXTT10=
EXTT11=
EXTT12=
PLAYORDER=
